<?xml version="1.0"?>
<svg version="1.1" xmlns="http://www.w3.org/2000/svg" width="200px" height="50px" style=""><path fill="#" d="M51.19140625,44.7265625q0.078125-4.08203125,0.341796875-8.14453125t0.458984375-8.14453125q0.0390625-1.5625,0.0390625-2.841796875t0.126953125-2.216796875t0.46875-1.435546875t1.142578125-0.498046875q0.68359375,0,1.03515625,0.1953125t0.537109375,0.498046875t0.224609375,0.68359375t0.0390625,0.771484375q0,0.56640625,0.0390625,1.123046875t0.0390625,1.123046875q0,4.12109375-0.224609375,8.22265625t-0.224609375,8.26171875q0,0.60546875,0.01953125,1.220703125t0.01953125,1.259765625q0,0.234375-0.21484375,0.390625t-0.537109375,0.263671875t-0.68359375,0.146484375t-0.595703125,0.0390625q-0.2734375,0-0.615234375-0.0390625t-0.6640625-0.166015625t-0.546875-0.302734375t-0.224609375-0.41015625z M52.28515625,18.2421875q0-0.1953125,0.05859375-0.439453125t0.13671875-0.439453125q0.0390625-0.234375,0.1171875-0.80078125t0.283203125-1.103515625t0.56640625-0.95703125t1.025390625-0.419921875l0.37109375,0q0.3125,0.078125,0.634765625,0.1953125t0.322265625,0.56640625q0,0.1953125-0.01953125,0.37109375t-0.05859375,0.390625q-0.15625,1.15234375-0.302734375,1.81640625t-0.341796875,1.005859375t-0.498046875,0.439453125t-0.771484375,0.13671875q-0.15625,0-0.419921875-0.01953125t-0.5078125-0.09765625t-0.419921875-0.244140625t-0.17578125-0.400390625z M58.9974609375,30.44921875q0-0.15625,0.185546875-0.283203125t0.419921875-0.185546875t0.478515625-0.078125t0.361328125-0.01953125q0.87890625,0,1.50390625,0.78125t1.083984375,2.001953125t0.78125,2.6953125t0.615234375,2.939453125t0.576171875,2.685546875t0.634765625,1.884765625q0.60546875-1.19140625,1.103515625-2.87109375t0.91796875-3.4765625t0.7421875-3.544921875t0.517578125-3.056640625q0.078125-0.3515625,0.48828125-0.439453125t0.68359375-0.087890625q0.44921875,0,0.78125,0.126953125t0.33203125,0.556640625q0,0.72265625-0.17578125,1.962890625t-0.478515625,2.783203125t-0.703125,3.1640625t-0.859375,3.076171875t-0.95703125,2.578125t-0.986328125,1.591796875q-0.234375,0.2734375-0.732421875,0.380859375t-0.830078125,0.107421875q-1.15234375,0-1.9140625-0.60546875l0,0.0390625q-1.19140625-1.11328125-1.7578125-2.71484375t-0.8203125-3.33984375t-0.458984375-3.45703125t-0.693359375-3.125q-0.078125-0.15625-0.1953125-0.458984375t-0.2734375-0.60546875t-0.263671875-0.576171875t-0.107421875-0.4296875z M74.401171875,37.71484375q0-1.328125,0.361328125-2.55859375t1.083984375-2.197265625t1.806640625-1.54296875t2.509765625-0.576171875q0.87890625,0,1.943359375,0.263671875t2.001953125,0.78125t1.5625,1.318359375t0.625,1.8359375q0,0.48828125-0.166015625,0.7421875t-0.673828125,0.25390625l-0.21484375-0.0390625q0.56640625,1.5234375,0.9765625,3.125t0.80078125,3.203125q0.15625,0.3125,0.234375,0.556640625t0.078125,0.478515625q0,0.3125-0.17578125,0.517578125t-0.458984375,0.302734375t-0.5859375,0.13671875t-0.537109375,0.0390625q-0.83984375,0-1.259765625-0.29296875t-0.60546875-0.80078125t-0.224609375-1.142578125t-0.15625-1.279296875q-0.234375,0.76171875-0.615234375,1.484375t-0.8984375,1.298828125t-1.220703125,0.91796875t-1.58203125,0.341796875q-1.2890625,0-2.16796875-0.7421875t-1.416015625-1.826171875t-0.78125-2.314453125t-0.244140625-2.28515625z M77.174609375,37.44140625q0,0.72265625,0.09765625,1.5234375t0.322265625,1.58203125t0.576171875,1.474609375t0.87890625,1.220703125q0.95703125-1.03515625,1.416015625-2.51953125t0.8203125-2.861328125t0.8203125-2.36328125t1.416015625-0.986328125q0.60546875,0,1.015625,0.21484375q-0.1953125-0.48828125-0.64453125-0.947265625t-1.005859375-0.83984375t-1.15234375-0.625t-1.123046875-0.244140625q-0.15625,0-0.361328125,0.048828125t-0.322265625,0.009765625q-0.80078125,0.234375-1.318359375,0.810546875t-0.83984375,1.357421875t-0.458984375,1.6015625t-0.13671875,1.54296875z M91.3478515625,37.8125l0-0.56640625q0-0.703125,0.0390625-1.328125q0.0390625-0.87890625,0.0390625-1.4453125q0-0.3125,0.0390625-0.712890625t0.1953125-0.634765625q0.1953125-0.1953125,0.458984375-0.400390625t0.576171875-0.205078125q0.99609375,0,1.5625,0.224609375t0.60546875,0.927734375l0.078125,0.60546875q0.3515625-0.83984375,0.9375-2.080078125t1.357421875-2.36328125t1.73828125-1.9140625t2.041015625-0.791015625q0.99609375,0,1.640625,0.9375t1.025390625,2.392578125t0.537109375,3.2421875t0.21484375,3.505859375t0.078125,3.134765625t0.13671875,2.138671875q0.078125,0.60546875,0.263671875,1.279296875t0.185546875,1.240234375q0,0.15625-0.224609375,0.302734375t-0.478515625,0.244140625t-0.517578125,0.15625t-0.380859375,0.05859375q-0.76171875,0-1.083984375-1.142578125t-0.400390625-2.861328125t-0.078125-3.720703125t-0.13671875-3.720703125t-0.556640625-2.861328125t-1.337890625-1.181640625q-0.83984375,0-1.73828125,1.083984375t-1.54296875,2.880859375q-0.625,1.796875-0.859375,4.08203125q-0.078125,0.72265625-0.078125,1.4453125q0,1.58203125,0.33203125,3.1640625q0.0390625,0.2734375-0.224609375,0.41015625t-0.654296875,0.21484375t-0.791015625,0.09765625t-0.615234375,0.01953125q-0.76171875,0-1.220703125-0.537109375t-0.712890625-1.376953125t-0.341796875-1.884765625t-0.107421875-2.060546875z"/><path fill="#" d=""/></svg>
